<svg width="32" height="32" viewBox="0 0 32 32" fill="none" xmlns="http://www.w3.org/2000/svg">
<rect width="32" height="32" rx="16" fill="#1D2533"/>
<path fill-rule="evenodd" clip-rule="evenodd" d="M16.7498 11L16.7498 8H15.2498V11H16.7498ZM22.4869 12.4952L23.9869 9.99525L22.7007 9.2235L21.2007 11.7235L22.4869 12.4952ZM8.01291 9.99525L9.51291 12.4952L10.7991 11.7235L9.29915 9.2235L8.01291 9.99525ZM8.67903 18.0007C10.3301 20.1178 12.9881 21.5009 15.9988 21.5009C19.0098 21.5009 21.6681 20.1176 23.3191 18.0001C22.2829 16.6715 20.8502 15.632 19.1826 15.042C19.3862 15.4859 19.4998 15.9797 19.4998 16.5C19.4998 18.433 17.9328 20 15.9998 20C14.0668 20 12.4998 18.433 12.4998 16.5C12.4998 15.9795 12.6134 15.4855 12.8172 15.0416C11.1488 15.6316 9.71544 16.6715 8.67903 18.0007ZM24.8665 17.5758C22.9709 14.8131 19.7009 13.0001 15.9996 13H15.9993C12.2975 13 9.02716 14.8133 7.13155 17.5765C6.95614 17.8322 6.95615 18.1694 7.13158 18.4251C9.02727 21.1878 12.2974 23.0009 15.9988 23.0009C19.7006 23.0009 22.9709 21.1875 24.8665 18.4244C25.0419 18.1687 25.0419 17.8314 24.8665 17.5758ZM15.9998 18.5C17.1044 18.5 17.9998 17.6046 17.9998 16.5C17.9998 15.3954 17.1044 14.5 15.9998 14.5C14.8952 14.5 13.9998 15.3954 13.9998 16.5C13.9998 17.6046 14.8952 18.5 15.9998 18.5Z" fill="#E8E9EA"/>
</svg>
