<svg width="32" height="32" viewBox="0 0 32 32" fill="none" xmlns="http://www.w3.org/2000/svg">
<rect width="32" height="32" rx="16" fill="#1D2533"/>
<path fill-rule="evenodd" clip-rule="evenodd" d="M7 12.9783C7 10.2465 9.16494 8 11.8745 8C13.2897 8 14.5168 8.74855 15.3676 9.76904C15.6045 10.0533 15.8168 10.3636 15.9997 10.6926C16.1825 10.3636 16.3946 10.0534 16.6314 9.76922C17.4816 8.74863 18.7083 8 20.1236 8C22.8332 8 24.9981 10.2465 24.9981 12.9783C24.9981 15.4006 23.4893 17.5485 21.7652 19.3159C20.4435 20.6709 18.8908 21.902 17.5947 22.9297C17.1917 23.2493 16.8134 23.5491 16.4747 23.827C16.1981 24.0538 15.8 24.0538 15.5234 23.827C15.1847 23.5491 14.8064 23.2493 14.4034 22.9297C13.1073 21.902 11.5546 20.6709 10.2329 19.3159C8.50876 17.5485 7 15.4006 7 12.9783ZM16.75 13.5H15.25C15.25 12.521 14.8583 11.5007 14.2154 10.7295C13.5729 9.95883 12.7373 9.5 11.8745 9.5C10.0283 9.5 8.5 11.0396 8.5 12.9783C8.5 14.7843 9.64272 16.5628 11.3066 18.2685C12.5544 19.5477 13.9952 20.6905 15.2792 21.7089C15.5257 21.9044 15.7665 22.0954 15.9991 22.2819C16.2316 22.0954 16.4724 21.9044 16.7189 21.7089C18.0029 20.6905 19.4437 19.5477 20.6915 18.2685C22.3554 16.5628 23.4981 14.7843 23.4981 12.9783C23.4981 11.0396 21.9698 9.5 20.1236 9.5C19.2609 9.5 18.4258 9.95875 17.7838 10.7294C17.1414 11.5005 16.75 12.5207 16.75 13.5Z" fill="#E8E9EA"/>
</svg>
